<svg width="71" height="45" viewBox="0 0 71 45" fill="none" xmlns="http://www.w3.org/2000/svg">
<path d="M10.8314 42.4503C9.37082 41.2253 10.4074 40.0475 12.9986 40.0475C15.7784 40.0475 19.3119 33.64 19.3119 28.7401C19.3119 26.2902 18.9821 26.1488 14.1293 26.1488C0.230737 26.1488 -4.71619 14.2762 5.22484 4.75932C19.359 -8.80949 39.0526 8.95245 32.0798 28.9757C28.4991 39.1052 16.1552 46.9261 10.8314 42.4503Z" fill="#C98B68"/>
<path d="M67.9336 31.3782C64.0231 39.6231 51.161 46.8317 45.9312 43.7693C44.4707 42.9212 45.0361 42.1202 48.6169 39.8587C55.4955 35.4771 57.6156 28.2686 52.0091 28.2686C36.273 28.2686 32.4095 6.03105 47.3446 1.41389C65.2481 -4.09844 76.8381 12.7682 67.9336 31.3782Z" fill="#C98B68"/>
</svg>
